<?xml version="1.0" encoding="iso-8859-1"?>
<!-- Generator: Adobe Illustrator 16.0.0, SVG Export Plug-In . SVG Version: 6.00 Build 0)  -->
<!DOCTYPE svg PUBLIC "-//W3C//DTD SVG 1.1//EN" "http://www.w3.org/Graphics/SVG/1.1/DTD/svg11.dtd">
<svg version="1.1" xmlns="http://www.w3.org/2000/svg" xmlns:xlink="http://www.w3.org/1999/xlink" x="0px" y="0px" width="512px"
	 height="512px" viewBox="0 0 512 512" style="enable-background:new 0 0 512 512;" xml:space="preserve">
<g id="E425_x2C__History_x2C__log_x2C__manuscript">
	<g>
		<g>
			<path style="fill:#5B5A57;" d="M486,426v20c0,11.05-8.95,20-20,20s-20-8.95-20-20v-20c0-5.52,2.24-10.52,5.86-14.14
				S460.48,406,466,406C477.05,406,486,414.95,486,426z"/>
			<path style="fill:#5B5A57;" d="M486,66v20c0,11.05-8.95,20-20,20s-20-8.95-20-20V66c0-5.52,2.24-10.52,5.86-14.14
				C455.48,48.24,460.48,46,466,46C477.05,46,486,54.95,486,66z"/>
			<path style="fill:#5B5A57;" d="M66,66v20c0,11.05-8.95,20-20,20s-20-8.95-20-20V66c0-11.05,8.95-20,20-20
				c5.52,0,10.52,2.24,14.14,5.86C63.76,55.48,66,60.48,66,66z"/>
			<path style="fill:#5B5A57;" d="M66,426v20c0,11.05-8.95,20-20,20s-20-8.95-20-20v-20c0-11.05,8.95-20,20-20
				c5.52,0,10.52,2.24,14.14,5.86C63.76,415.48,66,420.48,66,426z"/>
			<path style="fill:#5B5A57;" d="M446,426v20v20c0,11.05-8.95,20-20,20s-20-8.95-20-20v-60c0-5.52,2.24-10.52,5.86-14.14
				S420.48,386,426,386c11.05,0,20,8.95,20,20V426z"/>
			<path style="fill:#5B5A57;" d="M106,406v60c0,11.05-8.95,20-20,20s-20-8.95-20-20v-20v-20v-20c0-11.05,8.95-20,20-20
				c5.52,0,10.52,2.24,14.14,5.86C103.76,395.48,106,400.48,106,406z"/>
			<path style="fill:#5B5A57;" d="M106,46v60c0,11.05-8.95,20-20,20s-20-8.95-20-20V86V66V46c0-11.05,8.95-20,20-20
				c5.52,0,10.52,2.24,14.14,5.86C103.76,35.48,106,40.48,106,46z"/>
			<path style="fill:#5B5A57;" d="M446,66v20v20c0,11.05-8.95,20-20,20s-20-8.95-20-20V46c0-5.52,2.24-10.52,5.86-14.14
				C415.48,28.24,420.48,26,426,26c11.05,0,20,8.95,20,20V66z"/>
			<polygon style="fill:#747371;" points="406,406 406,466 106,466 106,406 126,406 386,406 			"/>
			<polygon style="fill:#747371;" points="406,46 406,106 386,106 126,106 106,106 106,46 			"/>
			<rect x="126" y="106" style="fill:#ECF0F1;" width="260" height="300"/>
			<g>
				<path style="fill:#BEC3C7;" d="M256,186c5.522,0,10-4.477,10-10s-4.478-10-10-10h-70c-5.523,0-10,4.477-10,10s4.477,10,10,10
					H256z"/>
				<path style="fill:#BEC3C7;" d="M216,216c0,5.523,4.477,10,10,10h70c5.522,0,10-4.477,10-10s-4.478-10-10-10h-70
					C220.477,206,216,210.477,216,216z"/>
				<path style="fill:#BEC3C7;" d="M276,256c0-5.523-4.478-10-10-10h-70c-5.523,0-10,4.477-10,10c0,5.522,4.477,10,10,10h70
					C271.522,266,276,261.522,276,256z"/>
				<path style="fill:#BEC3C7;" d="M306,286h-70c-5.523,0-10,4.478-10,10s4.477,10,10,10h70c5.522,0,10-4.478,10-10
					S311.522,286,306,286z"/>
				<path style="fill:#BEC3C7;" d="M286,326h-70c-5.523,0-10,4.478-10,10s4.477,10,10,10h70c5.522,0,10-4.478,10-10
					S291.522,326,286,326z"/>
			</g>
		</g>
	</g>
</g>
<g id="Layer_1">
</g>
</svg>
