<?xml version="1.0" standalone="no"?>
<!DOCTYPE svg PUBLIC "-//W3C//DTD SVG 20010904//EN"
 "http://www.w3.org/TR/2001/REC-SVG-20010904/DTD/svg10.dtd">
<svg version="1.0" xmlns="http://www.w3.org/2000/svg"
 width="700.000000pt" height="700.000000pt" viewBox="0 0 700.000000 700.000000"
 preserveAspectRatio="xMidYMid meet">
<metadata>
Created by potrace 1.14, written by Peter Selinger 2001-2017
</metadata>
<g transform="translate(0.000000,700.000000) scale(0.100000,-0.100000)"
fill="#000000" stroke="none">
<path d="M1113 6635 c-58 -13 -90 -31 -135 -78 -58 -60 -71 -107 -74 -256 -3
-136 -7 -164 -18 -114 -11 47 -77 124 -130 151 -138 72 -303 16 -372 -125 -27
-55 -28 -60 -29 -241 0 -154 3 -194 17 -236 25 -71 65 -116 137 -153 55 -29
69 -32 129 -29 124 6 217 78 253 196 8 28 8 31 12 -160 3 -121 23 -175 86
-236 63 -59 87 -68 181 -68 70 -1 93 3 128 22 93 49 135 114 152 240 0 1 62 1
137 0 l136 -3 1 -2047 1 -2048 -137 0 -136 0 -7 43 c-10 57 -38 109 -82 153
-130 130 -351 87 -435 -85 -19 -39 -23 -65 -25 -166 -3 -167 -3 -166 -15 -130
-12 35 -52 92 -82 118 -52 44 -100 61 -176 61 -66 1 -82 -3 -130 -30 -63 -36
-114 -96 -132 -157 -7 -26 -12 -113 -12 -228 0 -183 1 -187 28 -242 93 -191
355 -211 470 -36 15 22 29 53 33 69 12 62 18 26 18 -108 0 -162 14 -210 78
-273 100 -98 238 -110 352 -31 49 34 101 117 110 177 l6 45 2050 0 c2030 0
2049 0 2049 -20 0 -10 7 -41 16 -67 77 -229 391 -251 499 -36 28 54 30 67 32
178 3 168 2 166 21 116 20 -53 82 -119 137 -146 61 -30 175 -27 238 5 58 29
102 77 130 139 18 40 21 68 22 221 1 191 -8 248 -49 310 -27 41 -90 88 -145
107 -49 18 -150 9 -200 -16 -70 -36 -141 -124 -141 -174 0 -9 -3 -18 -7 -20
-5 -3 -8 59 -8 136 0 112 -4 152 -18 188 -19 51 -82 120 -131 143 -167 79
-361 -20 -391 -201 l-7 -43 -136 0 -137 0 0 2050 0 2050 138 0 c102 0 137 -3
138 -12 10 -151 133 -262 287 -259 91 1 196 73 236 161 17 38 21 68 22 185 2
77 3 142 4 145 0 3 9 -16 18 -42 36 -101 130 -168 243 -174 59 -3 75 1 128 27
67 34 104 72 134 139 18 40 21 66 21 225 0 207 -3 230 -37 288 -31 52 -59 79
-117 109 -59 30 -176 33 -233 4 -59 -29 -113 -86 -136 -141 -11 -29 -20 -42
-21 -30 0 11 -2 74 -4 140 -2 99 -6 128 -24 167 -48 102 -140 161 -249 160
-136 -1 -245 -95 -268 -229 l-7 -43 -2048 0 -2047 0 -7 42 c-25 157 -177 258
-333 223z"/>
</g>
</svg>
